HIERARCHY
ROOT Hips
{
  OFFSET 0.000000 0.000000 0.000000
  CHANNELS 6 Xposition Yposition Zposition Xrotation Yrotation Zrotation
  JOINT Spine
  {
    OFFSET -2.721785 23.846754 2.011942
    CHANNELS 3 Xrotation Yrotation Zrotation
    JOINT Chest
    {
      OFFSET -2.721785 23.846754 2.011942
      CHANNELS 3 Xrotation Yrotation Zrotation
      JOINT Neck
      {
        OFFSET -2.196127 3.794168 -6.634246
        CHANNELS 3 Xrotation Yrotation Zrotation
        JOINT Head
        {
          OFFSET -3.034930 3.616294 -10.505753
          CHANNELS 3 Xrotation Yrotation Zrotation
          End Site
          {
            OFFSET -0.910479 1.084888 -3.151726
          }
        }
      }
      JOINT LeftCollar
      {
        OFFSET 3.000000 4.000000 0.000000
        CHANNELS 3 Xrotation Yrotation Zrotation
        JOINT LeftShoulder
        {
          OFFSET 14.869504 1.490289 -6.285599
          CHANNELS 3 Xrotation Yrotation Zrotation
          JOINT LeftArm
          {
            OFFSET 8.240244 -5.869636 -13.075080
            CHANNELS 3 Xrotation Yrotation Zrotation
            JOINT LeftForeArm
            {
              OFFSET -11.957707 3.691441 -10.565373
              CHANNELS 3 Xrotation Yrotation Zrotation
              JOINT LeftHand
              {
                OFFSET -4.140924 1.948982 -1.245566
                CHANNELS 3 Xrotation Yrotation Zrotation
                End Site
                {
                  OFFSET -1.242277 0.584695 -0.373670
                }
              }
            }
          }
        }
      }
      JOINT RightCollar
      {
        OFFSET -3.000000 4.000000 0.000000
        CHANNELS 3 Xrotation Yrotation Zrotation
        JOINT RightShoulder
        {
          OFFSET -14.869504 -1.490289 6.285599
          CHANNELS 3 Xrotation Yrotation Zrotation
          JOINT RightArm
          {
            OFFSET -1.922670 -23.388141 -12.917531
            CHANNELS 3 Xrotation Yrotation Zrotation
            JOINT RightForeArm
            {
              OFFSET 2.003331 14.137387 -21.097828
              CHANNELS 3 Xrotation Yrotation Zrotation
              JOINT RightHand
              {
                OFFSET 3.010116 6.425109 -4.530513
                CHANNELS 3 Xrotation Yrotation Zrotation
                End Site
                {
                  OFFSET 0.903035 1.927533 -1.359154
                }
              }
            }
          }
        }
      }
    }
  }
  JOINT LeftUpLeg
  {
    OFFSET 9.506946 0.418498 -0.262008
    CHANNELS 3 Xrotation Yrotation Zrotation
    JOINT LeftLeg
    {
      OFFSET 11.960976 -40.825369 -9.870072
      CHANNELS 3 Xrotation Yrotation Zrotation
      JOINT LeftFoot
      {
        OFFSET 15.497771 -39.189824 4.980190
        CHANNELS 3 Xrotation Yrotation Zrotation
        End Site
        {
          OFFSET 4.649331 -11.756947 1.494057
        }
      }
    }
  }
  JOINT RightUpLeg
  {
    OFFSET -9.506946 -0.418498 0.262008
    CHANNELS 3 Xrotation Yrotation Zrotation
    JOINT RightLeg
    {
      OFFSET -10.786019 -28.000506 0.300963
      CHANNELS 3 Xrotation Yrotation Zrotation
      JOINT RightFoot
      {
        OFFSET -6.553627 -40.114717 19.325346
        CHANNELS 3 Xrotation Yrotation Zrotation
        End Site
        {
          OFFSET -1.966088 -12.034415 5.797604
        }
      }
    }
  }
}
MOTION
Frames: 15
Frame Time: 0.083333
-0.081231 60.002430 0.178770 -29.175275 -4.499346 -6.634725 0.000000 0.000000 0.000000 27.264999 3.760133 2.697817 1.336540 0.660762 0.251939 -178.564511 -10.368143 -13.694020 -0.908425 -12.721150 -13.587337 -34.026944 2.116913 -2.703775 35.458593 12.740010 15.475680 0.000000 0.000000 0.000000 0.000000 0.000000 0.000000 -0.908425 -12.721150 -13.587337 3.592059 16.105759 14.539351 -11.626594 0.317132 -1.951878 0.000000 0.000000 0.000000 0.000000 0.000000 0.000000 25.521829 6.865418 0.436437 4.234706 0.308610 -1.150740 0.000000 0.000000 0.000000 0.000000 0.000000 0.000000 0.000000 0.000000 0.000000 0.000000 0.000000 0.000000
-0.108716 60.003672 -0.179559 -29.125606 -4.490845 -6.636682 0.000000 0.000000 0.000000 27.221644 3.744565 2.703169 1.334874 0.655908 0.252136 179.916016 -9.647155 -14.092753 -0.881483 -12.797544 -13.627822 -34.035059 2.131263 -2.895505 35.732433 12.723696 15.559059 0.000000 0.000000 0.000000 0.000000 0.000000 0.000000 -0.881483 -12.797544 -13.627822 3.330349 15.861751 14.813653 -10.817277 0.315822 -2.108309 0.000000 0.000000 0.000000 0.000000 0.000000 0.000000 25.759854 6.884525 0.325743 4.262034 0.320060 -1.123366 0.000000 0.000000 0.000000 0.000000 0.000000 0.000000 0.000000 0.000000 0.000000 0.000000 0.000000 0.000000
0.051291 60.082708 -0.951424 -29.125696 -4.490858 -6.636662 0.000000 0.000000 0.000000 27.221841 3.744295 2.702943 1.334882 0.655773 0.252133 179.663587 -4.898971 -13.384891 -0.750223 -13.170483 -13.890598 -35.338253 5.327795 -3.413246 38.824450 13.189052 15.181474 0.000000 0.000000 0.000000 0.000000 0.000000 0.000000 -0.750223 -13.170483 -13.890598 3.587584 16.541171 16.164282 -8.233499 0.662452 -3.258772 0.000000 0.000000 0.000000 0.000000 0.000000 0.000000 26.057919 6.799699 0.150200 4.248855 0.324855 -1.190257 0.000000 0.000000 0.000000 0.000000 0.000000 0.000000 0.000000 0.000000 0.000000 0.000000 0.000000 0.000000
0.748283 60.291569 -1.814572 -29.395580 -4.499139 -6.441130 0.000000 0.000000 0.000000 27.450415 3.468947 2.423825 1.285177 0.541035 0.259963 -178.573707 1.480079 -14.273846 -0.585188 -14.519664 -14.226667 -36.141465 8.089112 -0.590190 43.575798 13.618921 14.606114 0.000000 0.000000 0.000000 0.000000 0.000000 0.000000 -0.585188 -14.519664 -14.226667 2.296453 18.828750 17.762488 -5.236502 0.645991 -4.492876 0.000000 0.000000 0.000000 0.000000 0.000000 0.000000 24.851720 6.398329 0.309691 4.080114 0.214006 -1.524624 0.000000 0.000000 0.000000 0.000000 0.000000 0.000000 0.000000 0.000000 0.000000 0.000000 0.000000 0.000000
1.712954 60.630967 -2.244270 -28.142654 -4.253328 -6.340083 0.000000 0.000000 0.000000 26.459673 2.665567 2.236812 1.265798 0.242569 0.244125 -178.606743 4.099700 -14.490848 -0.495334 -15.920878 -14.268505 -35.422989 12.437994 0.033812 46.409896 13.530686 13.665064 0.000000 0.000000 0.000000 0.000000 0.000000 0.000000 -0.495334 -15.920878 -14.268505 4.610817 18.582386 18.598159 -4.942321 2.555565 -5.932628 0.000000 0.000000 0.000000 0.000000 0.000000 0.000000 22.242966 6.041842 1.229477 3.348790 -0.236222 -2.365931 0.000000 0.000000 0.000000 0.000000 0.000000 0.000000 0.000000 0.000000 0.000000 0.000000 0.000000 0.000000
2.462560 60.956357 -2.483478 -25.464459 -3.862175 -6.766586 0.000000 0.000000 0.000000 24.253317 1.817394 2.585310 1.214836 -0.062420 0.263096 177.059191 -0.092950 -13.275914 0.107634 -15.699101 -14.693000 -35.736160 11.255791 0.256283 46.254572 12.283326 14.872923 0.000000 0.000000 0.000000 0.000000 0.000000 0.000000 0.107634 -15.699101 -14.693000 5.281907 17.340621 21.120325 -6.321733 4.787188 -7.174123 0.000000 0.000000 0.000000 0.000000 0.000000 0.000000 29.381863 7.691031 -0.687205 2.879326 -0.601635 -2.361714 0.000000 0.000000 0.000000 0.000000 0.000000 0.000000 0.000000 0.000000 0.000000 0.000000 0.000000 0.000000
2.782243 61.138525 -2.774039 -32.645116 -5.114018 -6.580021 0.000000 0.000000 0.000000 30.698652 2.737419 1.087009 1.426962 0.050900 0.245002 174.096832 -0.950483 -12.287452 0.696702 -15.475110 -15.820448 -37.792327 10.829858 -0.011222 48.579636 13.457236 14.154469 0.000000 0.000000 0.000000 0.000000 0.000000 0.000000 0.696702 -15.475110 -15.820448 4.308176 18.002926 22.314606 -6.143746 5.042163 -7.160191 0.000000 0.000000 0.000000 0.000000 0.000000 0.000000 33.808459 8.959125 -1.985705 3.124762 -0.545434 -1.760828 0.000000 0.000000 0.000000 0.000000 0.000000 0.000000 0.000000 0.000000 0.000000 0.000000 0.000000 0.000000
2.861795 61.163043 -3.180572 -37.113748 -5.996675 -6.896282 0.000000 0.000000 0.000000 34.227304 3.462646 0.611896 1.460363 0.204571 0.288989 173.333363 -0.874310 -11.362220 1.016659 -15.802463 -16.566343 -38.463586 9.611259 0.260567 51.687271 15.065459 13.085420 0.000000 0.000000 0.000000 0.000000 0.000000 0.000000 1.016659 -15.802463 -16.566343 3.542072 18.651708 22.411169 -6.159673 4.357311 -6.826365 0.000000 0.000000 0.000000 0.000000 0.000000 0.000000 34.927093 9.830589 -2.293544 3.246387 -0.527825 -1.055196 0.000000 0.000000 0.000000 0.000000 0.000000 0.000000 0.000000 0.000000 0.000000 0.000000 0.000000 0.000000
2.655723 61.117560 -3.471517 -38.300290 -6.392744 -7.580377 0.000000 0.000000 0.000000 35.000631 3.974434 0.884069 1.368449 0.254969 0.368126 172.247141 0.722214 -11.413255 1.215606 -15.926785 -16.822743 -39.030060 8.182600 0.267418 53.665167 16.009187 11.359753 0.000000 0.000000 0.000000 0.000000 0.000000 0.000000 1.215606 -15.926785 -16.822743 2.556270 19.167005 22.065736 -6.084504 3.612221 -6.422469 0.000000 0.000000 0.000000 0.000000 0.000000 0.000000 35.221129 10.134972 -2.632725 3.313263 -0.515170 -0.278748 0.000000 0.000000 0.000000 0.000000 0.000000 0.000000 0.000000 0.000000 0.000000 0.000000 0.000000 0.000000
2.071959 60.996813 -3.384667 -38.670704 -6.518445 -7.786887 0.000000 0.000000 0.000000 35.147189 4.116498 1.013419 1.327974 0.229244 0.386282 171.184686 -0.206087 -12.210849 1.235079 -15.575682 -16.523856 -38.310109 7.729345 -0.536166 54.081487 16.209412 10.355941 0.000000 0.000000 0.000000 0.000000 0.000000 0.000000 1.235079 -15.575682 -16.523856 2.090958 18.201014 21.860394 -4.410019 3.136176 -6.576591 0.000000 0.000000 0.000000 0.000000 0.000000 0.000000 34.434825 9.960527 -2.275401 3.037324 -0.626374 -0.322266 0.000000 0.000000 0.000000 0.000000 0.000000 0.000000 0.000000 0.000000 0.000000 0.000000 0.000000 0.000000
1.182555 60.845269 -2.670250 -37.843452 -6.357147 -7.774936 0.000000 0.000000 0.000000 34.287507 3.961825 1.270101 1.252630 0.154559 0.401745 170.404396 -0.089068 -12.616591 1.134621 -14.484648 -15.933797 -36.981882 4.777785 -2.614535 52.608094 15.947720 10.436877 0.000000 0.000000 0.000000 0.000000 0.000000 0.000000 1.134621 -14.484648 -15.933797 2.093097 15.036822 22.012078 -2.821027 3.472447 -7.738076 0.000000 0.000000 0.000000 0.000000 0.000000 0.000000 33.002429 9.273763 -1.560664 2.459105 -0.828913 -0.977700 0.000000 0.000000 0.000000 0.000000 0.000000 0.000000 0.000000 0.000000 0.000000 0.000000 0.000000 0.000000
0.492714 60.821692 -1.569572 -36.180818 -5.949197 -7.385609 0.000000 0.000000 0.000000 32.484146 3.795092 1.735592 1.145436 0.133632 0.381830 170.560579 -0.258204 -12.830668 1.159032 -12.986991 -14.994351 -33.983285 6.540848 -3.356151 48.957742 15.066873 11.080522 0.000000 0.000000 0.000000 0.000000 0.000000 0.000000 1.159032 -12.986991 -14.994351 3.165726 11.902969 22.740791 -2.361957 5.362390 -9.531124 0.000000 0.000000 0.000000 0.000000 0.000000 0.000000 31.340057 7.644888 -0.947503 2.256540 -0.726579 -2.465323 0.000000 0.000000 0.000000 0.000000 0.000000 0.000000 0.000000 0.000000 0.000000 0.000000 0.000000 0.000000
0.245315 61.056666 -2.285817 -34.074115 -5.235533 -5.941766 0.000000 0.000000 0.000000 30.090535 3.322771 1.820178 1.115122 0.061551 0.222442 169.487854 -3.888941 -16.941502 1.186731 -11.029119 -13.315563 -28.068139 4.520298 -5.385815 40.769804 12.337288 13.449083 0.000000 0.000000 0.000000 0.000000 0.000000 0.000000 1.186731 -11.029119 -13.315563 5.693606 8.476576 16.328601 -3.856209 3.723071 -6.210151 0.000000 0.000000 0.000000 0.000000 0.000000 0.000000 29.672132 5.453207 -1.541956 3.062738 -0.071450 -2.881226 0.000000 0.000000 0.000000 0.000000 0.000000 0.000000 0.000000 0.000000 0.000000 0.000000 0.000000 0.000000
1.180189 62.767275 -3.742652 -31.991707 -4.410693 -3.485258 0.000000 0.000000 0.000000 27.997748 2.506502 0.794935 1.014154 0.042750 0.086107 168.167063 -6.183304 -20.958171 1.181706 -7.532401 -10.075238 -20.373786 4.343855 -3.226031 31.670956 9.172644 11.262962 0.000000 0.000000 0.000000 0.000000 0.000000 0.000000 1.181706 -7.532401 -10.075238 5.501181 5.950494 13.314238 -3.472685 3.330234 -5.745193 0.000000 0.000000 0.000000 0.000000 0.000000 0.000000 23.314877 3.307177 -1.537498 4.009538 0.746109 -1.821994 0.000000 0.000000 0.000000 0.195743 -0.073601 -0.124336 -0.598793 0.259398 0.386246 0.000000 0.000000 0.000000
3.065676 65.430092 -4.285384 -25.405240 -3.176781 -1.602977 0.000000 0.000000 0.000000 21.755208 1.584416 0.416720 0.748146 0.109542 0.039250 176.122801 -14.491411 -28.168017 0.972359 -4.404111 -5.328305 0.000000 0.000000 0.000000 15.413162 2.939423 5.626592 0.000000 0.000000 0.000000 0.000000 0.000000 0.000000 0.972359 -4.404111 -5.328305 0.000000 0.000000 0.000000 0.000000 0.000000 0.000000 0.000000 0.000000 0.000000 0.000000 0.000000 0.000000 12.610967 1.349623 -0.987292 3.640696 1.036941 -0.754644 0.000000 0.000000 0.000000 1.239116 -0.398683 -0.923875 -3.341491 1.443895 2.542919 0.000000 0.000000 0.000000
